<?xml version="1.0" standalone="no"?>
<!DOCTYPE svg PUBLIC "-//W3C//DTD SVG 20010904//EN"
 "http://www.w3.org/TR/2001/REC-SVG-20010904/DTD/svg10.dtd">
<svg version="1.0" xmlns="http://www.w3.org/2000/svg"
 width="5210.000000pt" height="4168.000000pt" viewBox="0 0 5210.000000 4168.000000"
 preserveAspectRatio="xMidYMid meet">

<g transform="translate(0.000000,4168.000000) scale(0.100000,-0.100000)"
fill="#000000" stroke="none">
<path d="M26335 38540 c-848 -39 -1697 -151 -2530 -336 -283 -63 -1046 -253
-1253 -313 -215 -63 -461 -147 -657 -227 -869 -351 -1206 -499 -1700 -747
-1706 -853 -3249 -2016 -4490 -3382 -977 -1075 -1772 -2399 -2308 -3845 -36
-96 -102 -287 -147 -423 -81 -243 -85 -254 -231 -525 -651 -1207 -1031 -2106
-1230 -2907 -121 -488 -169 -863 -169 -1324 0 -346 21 -599 81 -964 17 -104
29 -190 27 -192 -2 -2 -57 21 -123 52 -597 272 -1696 752 -1839 802 -305 108
-518 37 -641 -212 -152 -309 -296 -1292 -324 -2215 -9 -296 -1 -725 19 -962
31 -376 89 -562 219 -703 158 -170 319 -187 826 -87 83 16 292 54 465 85 275
49 892 161 989 181 l34 7 -75 -99 c-245 -325 -440 -664 -601 -1044 -209 -492
-317 -902 -376 -1425 -12 -99 -30 -259 -41 -355 -117 -998 115 -1928 669
-2680 38 -52 107 -149 152 -215 219 -318 399 -537 638 -775 505 -502 1099
-888 1766 -1146 61 -24 103 -45 95 -48 -28 -10 -815 -254 -900 -279 -47 -14
-173 -44 -280 -67 -1557 -330 -2608 -798 -3261 -1453 -442 -443 -695 -983
-750 -1596 -26 -299 36 -623 175 -916 280 -589 883 -1131 1741 -1565 701 -355
1411 -553 2190 -611 84 -6 299 -9 488 -7 l339 3 38 -95 c279 -701 828 -1314
1465 -1635 192 -98 303 -141 324 -128 40 25 24 41 -107 107 -221 111 -388 215
-272 170 456 -176 1073 -201 1597 -64 110 29 114 29 229 17 109 -10 118 -10
152 8 54 30 76 67 76 128 0 96 -50 146 -157 154 -89 6 -107 11 -107 30 0 8
-29 68 -65 133 -81 145 -164 334 -222 509 -40 120 -46 148 -54 275 -11 157 1
435 27 620 67 486 248 958 507 1324 47 65 62 78 148 127 74 42 126 63 230 91
323 87 813 274 1314 502 121 54 285 123 365 152 304 110 604 236 811 341 107
55 121 59 183 59 45 0 93 8 144 25 119 39 328 147 423 219 105 79 237 217 304
316 67 100 157 281 190 382 23 69 118 258 130 258 2 0 36 -57 76 -127 40 -71
90 -157 112 -192 21 -35 35 -67 30 -71 -4 -4 -71 -63 -148 -131 -277 -245
-617 -592 -925 -944 -215 -246 -392 -462 -970 -1184 -485 -606 -569 -706 -590
-705 -14 0 -71 7 -128 14 -248 33 -431 -50 -523 -235 -32 -65 -34 -76 -34
-170 0 -114 14 -152 88 -232 39 -42 40 -45 22 -55 -11 -6 -41 -33 -67 -59
-103 -105 -98 -261 11 -367 23 -22 80 -59 126 -82 83 -41 96 -52 75 -65 -17
-11 -57 -97 -70 -154 -36 -153 41 -357 166 -440 101 -66 142 -76 324 -75 158
0 173 2 355 43 250 57 340 59 438 13 84 -39 142 -98 253 -258 160 -230 259
-329 392 -395 75 -37 183 -50 245 -30 86 29 181 137 227 259 30 79 57 215 70
357 6 66 22 239 36 385 l26 265 46 48 c142 148 553 518 1017 916 451 388 572
489 553 461 -224 -322 -401 -629 -549 -951 -151 -328 -296 -725 -284 -779 26
-116 201 -151 270 -53 8 11 32 71 53 134 181 519 413 983 700 1399 499 723
1127 1292 1835 1665 68 36 129 65 135 65 6 0 80 -44 164 -98 691 -443 1570
-832 2468 -1091 428 -123 1003 -249 1063 -233 33 9 34 9 62 -42 39 -70 127
-155 205 -199 172 -95 538 -172 825 -171 170 0 234 13 355 70 61 29 92 53 166
128 l91 93 279 6 c1064 25 1883 204 2660 582 l192 93 65 -137 c254 -531 410
-1070 487 -1681 36 -286 44 -431 43 -780 0 -370 -13 -571 -59 -909 -28 -211
-26 -229 36 -285 69 -62 179 -56 214 12 27 53 75 440 97 787 15 235 6 753 -16
990 -69 737 -246 1395 -536 1994 -69 143 -89 193 -89 226 0 23 -7 58 -15 78
-17 41 -67 86 -98 89 -39 2 -81 -4 -102 -14 -19 -10 -19 -10 -3 8 9 10 20 31
23 46 4 15 34 55 67 89 75 77 98 114 98 158 0 41 -32 99 -69 126 l-28 20 57
260 c32 143 85 370 118 505 51 209 304 1184 330 1275 l9 30 16 -31 c42 -81
103 -82 327 -2 167 60 534 162 825 229 555 127 1395 297 1923 388 164 29 303
57 316 66 49 33 62 124 25 185 -12 19 -26 38 -30 41 -5 3 -18 50 -28 105 -11
54 -28 137 -40 184 -23 96 -101 506 -101 531 0 13 36 26 163 59 330 86 732
197 1517 420 982 279 1297 365 1775 481 204 50 398 99 432 110 62 18 63 18 95
-1 37 -21 324 -98 488 -129 208 -41 347 -52 701 -58 236 -4 386 -2 474 6 538
51 868 252 883 538 5 80 -14 153 -54 215 -13 21 -24 39 -24 42 0 2 20 7 44 10
68 10 181 70 234 123 54 54 84 110 107 198 19 75 19 115 -1 190 -34 135 -128
237 -286 315 -57 27 -109 50 -115 50 -31 0 -7 18 68 49 96 40 221 114 288 170
108 91 164 221 141 333 -56 286 -350 506 -780 584 -47 8 -173 19 -280 23 -213
8 -244 16 -302 78 -65 68 -77 202 -39 440 35 222 25 354 -39 489 -88 184 -281
278 -469 230 -147 -38 -252 -107 -427 -281 -123 -122 -479 -537 -513 -597 -9
-16 -25 -28 -36 -28 -11 0 -29 -3 -40 -6 -19 -5 -20 0 -21 198 -2 554 -119
946 -612 2058 -168 379 -461 1002 -789 1675 -308 631 -424 880 -543 1170 -30
72 -61 138 -69 148 -14 17 -14 20 0 27 97 55 290 215 459 382 465 457 813
1035 1044 1733 392 1180 359 2527 -99 4132 -41 143 -93 350 -116 460 -99 484
-240 995 -396 1428 -36 99 -98 272 -137 385 -157 442 -222 582 -629 1335 -453
840 -1029 1675 -1672 2425 -377 441 -934 1029 -1129 1193 -60 51 -158 135
-216 188 -712 640 -1510 1231 -2284 1691 -149 88 -318 189 -376 223 -58 34
-170 103 -250 152 -341 212 -788 442 -1186 611 -730 311 -1438 506 -2114 582
-102 11 -286 39 -410 60 -507 89 -953 141 -1555 181 -212 13 -1110 20 -1350 9z
m2632 -5880 c931 -1623 1677 -3290 2163 -4836 365 -1159 570 -2095 708 -3223
11 -93 22 -146 30 -149 17 -5 16 75 -8 329 -115 1239 -407 2496 -895 3854
-423 1176 -971 2360 -1633 3530 -108 191 -155 273 -244 423 -11 17 -17 32 -14
32 3 0 91 -127 194 -282 824 -1235 1441 -2365 1983 -3631 472 -1099 838 -2174
1223 -3581 76 -278 87 -312 115 -340 28 -28 37 -31 94 -31 78 0 112 22 158
103 41 74 198 309 213 320 6 5 33 17 60 27 96 35 166 137 166 242 0 28 16 49
133 165 72 74 170 164 217 202 252 201 528 338 804 398 87 19 132 22 326 23
197 0 239 -3 340 -23 510 -103 940 -382 1244 -805 242 -338 422 -801 506
-1297 27 -158 35 -183 73 -227 87 -99 260 -112 349 -26 21 20 29 23 32 12 29
-85 245 -1837 230 -1861 -4 -6 -6 -27 -6 -49 1 -31 19 -68 93 -186 279 -444
474 -840 597 -1208 287 -859 211 -1639 -237 -2438 -467 -834 -1351 -1698
-2451 -2396 -399 -253 -740 -446 -1225 -691 -776 -392 -1570 -734 -2938 -1266
-320 -124 -627 -243 -683 -265 -112 -44 -151 -76 -164 -135 -8 -35 -3 -85 14
-124 4 -10 -18 -42 -65 -95 -422 -470 -862 -1058 -1094 -1459 l-79 -138 -34
38 c-104 118 -230 274 -312 384 -121 164 -434 635 -547 825 -109 182 -257 454
-251 461 3 2 49 0 102 -6 117 -13 158 -4 187 44 25 41 25 120 0 166 -32 60
-63 71 -264 91 -100 10 -201 23 -224 29 -23 5 -69 10 -101 10 -69 0 -561 54
-962 105 -469 61 -682 94 -738 116 -35 14 -65 19 -90 16 -68 -9 -677 108
-1110 213 -582 142 -1105 313 -1585 516 -222 95 -642 304 -832 414 -125 73
-198 119 -440 279 -124 81 -376 275 -530 407 -183 156 -492 463 -644 639 -108
125 -155 165 -193 165 -14 0 -16 5 -9 23 26 69 342 741 534 1137 173 358 421
890 568 1222 746 1682 1036 2841 1039 4153 1 169 3 188 34 315 24 97 36 129
41 115 40 -103 149 -362 156 -369 6 -6 13 -6 19 0 7 7 1 37 -21 95 -17 46 -55
153 -84 237 l-54 153 39 170 c22 93 40 173 40 177 1 4 27 -63 59 -149 101
-269 124 -299 230 -299 68 0 114 25 138 74 16 35 15 42 -13 135 l-7 23 39 -26
c48 -31 133 -50 187 -42 53 9 160 66 221 118 46 40 53 42 111 43 79 0 136 35
160 99 15 39 14 51 -19 256 -278 1712 -365 3518 -261 5360 19 324 53 775 64
850 l9 55 1 -70 c3 -152 36 -659 72 -1090 113 -1354 319 -2543 624 -3598 169
-585 362 -1072 574 -1452 38 -66 60 -118 58 -130 -3 -11 -18 -74 -35 -140 -74
-285 -102 -570 -83 -853 13 -192 24 -229 74 -266 21 -15 44 -21 84 -21 48 0
58 3 82 31 26 29 28 37 35 165 33 636 247 1162 635 1562 146 151 420 363 441
341 4 -5 13 -26 20 -47 14 -44 41 -63 70 -47 24 13 25 42 5 101 -15 42 -15 44
7 61 56 42 376 169 484 192 31 7 32 6 54 -54 12 -33 27 -63 32 -66 21 -13 21
10 0 68 -17 47 -20 63 -10 69 15 9 152 35 273 50 232 30 701 3 732 -41 16 -22
49 -27 55 -8 4 10 23 8 84 -6 358 -83 729 -265 1063 -521 61 -47 112 -78 141
-85 89 -24 191 9 264 85 l45 45 44 -28 c25 -15 74 -36 108 -46 35 -9 75 -21
89 -24 24 -7 25 -12 30 -98 6 -100 20 -132 73 -164 39 -24 116 -26 157 -5 51
26 60 59 60 210 l0 136 36 31 c58 52 87 119 91 218 4 79 -3 119 -102 559
l-106 475 -30 325 c-187 2039 -550 3819 -1179 5776 -16 49 -28 90 -27 92 6 5
185 -416 312 -732 510 -1271 846 -2499 1024 -3743 112 -774 146 -1298 157
-2407 4 -376 11 -615 17 -622 5 -7 20 -13 32 -13 12 0 27 6 33 13 5 6 18 116
28 242 14 180 18 339 18 730 1 484 -6 652 -40 1090 -157 2031 -734 4007 -1780
6097 -90 181 -119 247 -71 163 13 -22 87 -150 164 -285z m-15957 -4211 c-180
-689 -305 -1465 -367 -2284 -22 -290 -26 -1351 -5 -1615 49 -632 106 -1072
208 -1583 14 -71 24 -131 21 -133 -2 -3 -219 95 -482 216 -262 121 -481 220
-486 220 -16 0 -27 37 -58 205 -73 404 -95 644 -95 1030 -1 350 13 518 69 852
113 676 350 1388 750 2258 102 222 467 957 472 951 2 -1 -10 -54 -27 -117z
m23075 -419 c60 -96 163 -259 230 -362 l122 -186 7 -99 c18 -254 25 -685 15
-982 -5 -173 -11 -316 -13 -318 -1 -2 -31 22 -66 52 -34 30 -77 64 -94 76
l-32 22 39 78 c63 121 60 164 -36 511 -47 172 -82 322 -92 395 -41 308 -152
849 -201 989 -13 36 12 -1 121 -176z m539 -822 c66 -97 67 -98 51 -127 -8 -17
-15 -43 -15 -59 0 -16 42 -197 94 -403 94 -374 207 -863 272 -1184 19 -93 37
-181 39 -195 3 -14 -24 31 -60 99 -138 259 -270 444 -443 622 -69 72 -80 87
-64 91 15 4 20 18 25 59 19 166 28 478 25 821 -1 213 0 384 3 380 3 -4 36 -51
73 -104z m3641 -393 c199 -987 217 -1840 54 -2650 -173 -864 -535 -1613 -1064
-2198 -84 -94 -283 -278 -323 -301 -15 -9 -15 -8 -1 15 26 40 152 257 214 369
88 157 274 534 353 715 314 719 533 1475 641 2215 67 458 86 740 85 1260 0
386 -6 512 -39 887 l-5 58 15 -50 c8 -27 40 -171 70 -320z m-30600 -2876 c37
-11 115 -43 174 -71 58 -27 205 -93 326 -145 538 -233 1624 -720 1642 -737 6
-6 25 -65 43 -131 63 -239 175 -589 263 -817 14 -38 24 -68 22 -68 -9 0 -356
83 -530 126 -225 56 -516 139 -701 198 -152 48 -181 49 -226 9 -70 -63 -62
-197 14 -247 29 -19 387 -129 633 -195 167 -45 475 -120 845 -206 l115 -27
107 -216 c59 -119 145 -284 192 -366 48 -82 85 -150 84 -151 -2 -2 -88 -23
-193 -48 -469 -114 -1193 -260 -2030 -411 -291 -52 -622 -112 -735 -132 -268
-48 -354 -53 -414 -24 -153 74 -199 362 -199 1245 0 729 54 1263 207 2024 59
295 78 350 136 389 43 29 133 30 225 1z m2742 -1225 c219 -102 432 -201 474
-220 l76 -35 51 -192 c29 -106 71 -257 96 -337 33 -110 40 -146 30 -148 -53
-13 -809 128 -834 154 -27 30 -223 591 -290 829 -16 61 -33 118 -36 128 -5 15
-2 18 14 12 12 -3 200 -89 419 -191z m7963 -159 c561 -73 1118 -296 1593 -637
53 -38 97 -74 97 -79 0 -21 -181 -412 -304 -659 -200 -398 -369 -701 -836
-1502 -118 -202 -217 -368 -220 -368 -3 0 -23 26 -45 56 -60 85 -228 241 -335
312 -168 112 -380 205 -590 257 -185 46 -302 60 -515 60 -231 -1 -258 -7 -263
-64 -5 -46 19 -68 87 -81 249 -51 577 -189 818 -345 129 -84 298 -208 287
-212 -5 -1 -61 -16 -124 -32 -145 -37 -259 -78 -380 -139 -87 -43 -95 -50 -98
-78 -6 -57 14 -61 136 -25 191 55 318 76 561 91 l153 10 53 -26 c28 -15 62
-34 75 -44 l23 -17 -105 -189 c-416 -748 -696 -1368 -860 -1904 -29 -94 -57
-169 -62 -167 -5 2 -10 16 -12 32 -5 51 -22 68 -162 160 -840 553 -1501 1367
-1784 2195 -322 942 -144 1834 515 2577 425 480 1019 773 1692 833 138 12 455
4 605 -15z m-7680 -1009 c102 -19 248 -42 325 -51 77 -9 162 -19 189 -23 l49
-7 62 -170 c35 -93 66 -177 69 -186 6 -13 -15 -22 -116 -52 -220 -65 -459
-129 -464 -125 -18 18 -174 300 -255 462 -99 195 -100 199 -72 193 15 -4 111
-22 213 -41z m25893 -3043 c655 -1014 1181 -1964 1426 -2581 46 -114 50 -132
21 -85 -22 37 -67 63 -108 63 -22 0 -537 -130 -737 -185 -20 -6 -20 -1 -20
347 -1 385 -9 495 -66 835 -93 565 -303 1144 -547 1507 l-68 101 15 48 c8 26
16 47 18 47 2 0 32 -44 66 -97z m1 -331 c284 -568 422 -1127 466 -1886 9 -166
14 -606 7 -606 -2 0 -224 -59 -493 -130 -783 -209 -1926 -491 -1938 -479 -3 2
-1 47 4 99 9 116 -1 155 -49 187 -35 24 -51 26 -216 25 -67 0 -384 -53 -620
-104 -134 -29 -216 -41 -277 -42 -79 -1 -89 -3 -115 -28 -19 -18 -62 -36 -137
-57 -60 -18 -110 -30 -112 -28 -2 2 110 71 249 155 786 471 1369 914 1898
1442 368 367 646 710 885 1090 77 123 249 452 293 560 l22 54 20 -33 c11 -18
62 -117 113 -219z m3382 -1481 c77 -47 97 -165 63 -381 -53 -352 -15 -559 128
-690 105 -96 227 -131 527 -150 98 -6 211 -17 250 -25 146 -28 340 -119 423
-200 97 -95 94 -175 -9 -235 -61 -34 -301 -130 -465 -184 -124 -41 -159 -63
-179 -112 -54 -129 23 -201 378 -354 133 -57 197 -103 227 -163 27 -54 24 -80
-15 -127 -66 -78 -185 -98 -359 -60 -160 35 -185 35 -224 8 -72 -49 -98 -124
-66 -191 13 -28 34 -44 108 -83 180 -96 252 -169 252 -255 0 -39 -5 -53 -29
-78 -52 -54 -228 -128 -396 -167 -62 -14 -145 -18 -490 -21 -543 -6 -687 9
-1045 109 -185 51 -247 58 -284 30 l-26 -19 -35 23 c-23 16 -49 24 -77 24
-111 0 -1006 -233 -2153 -560 -922 -263 -1729 -484 -1737 -476 -11 10 -75 569
-97 846 -32 391 -40 601 -40 1067 0 266 3 485 6 489 4 3 132 34 285 70 409 94
1086 265 1688 424 292 77 647 172 790 210 143 38 341 90 440 115 99 26 188 53
198 60 30 21 47 52 56 97 l8 43 36 -115 c47 -149 82 -297 103 -430 l16 -107
-39 -85 c-89 -188 -243 -432 -392 -618 -101 -127 -311 -336 -441 -440 -200
-160 -485 -328 -685 -404 -110 -42 -131 -55 -155 -98 -48 -85 -7 -198 77 -214
43 -8 293 19 523 56 96 16 206 32 243 35 145 14 238 51 467 184 309 180 449
319 571 566 107 216 142 408 139 760 l-2 220 50 136 c55 147 111 349 138 497
l17 92 33 -6 c44 -8 164 13 201 36 17 10 39 32 49 49 10 17 26 34 36 37 10 3
64 63 121 132 429 533 658 716 793 633z m-5640 -1628 c-16 -55 -28 -596 -23
-1009 7 -577 36 -1000 108 -1544 16 -124 34 -257 39 -296 22 -168 89 -541 146
-808 19 -92 33 -170 31 -172 -2 -2 -93 -20 -203 -39 -109 -20 -295 -54 -413
-76 -117 -22 -219 -38 -225 -36 -7 3 -33 67 -59 144 -164 489 -221 943 -247
1943 -15 595 7 1098 66 1540 32 239 29 228 74 240 80 22 265 60 427 89 213 38
212 38 251 40 27 1 32 -2 28 -16z m-1072 -290 c-50 -343 -74 -754 -74 -1272 0
-827 44 -1406 146 -1918 32 -164 105 -436 140 -523 9 -22 15 -42 13 -44 -2 -1
-40 -10 -84 -19 -229 -47 -661 -141 -815 -177 -356 -83 -799 -215 -932 -279
l-57 -27 5 25 c4 14 19 78 35 141 80 326 199 910 199 977 0 72 -60 134 -140
148 -46 8 -102 -14 -124 -47 -9 -13 -41 -148 -71 -299 -73 -360 -140 -647
-280 -1194 -349 -1363 -388 -1524 -474 -1953 l-47 -234 -70 -45 c-100 -66
-330 -175 -469 -223 -360 -124 -830 -211 -1350 -250 -77 -6 -303 -14 -502 -17
l-363 -6 0 50 c0 80 -17 153 -55 229 -82 168 -237 241 -581 275 -71 6 -130 13
-132 14 -1 1 11 83 27 181 139 826 247 1857 297 2833 l7 134 41 41 c23 23 74
85 115 139 142 187 340 371 585 542 110 76 154 90 178 54 48 -75 87 -273 95
-484 3 -88 11 -163 19 -182 18 -45 67 -73 129 -73 87 0 123 34 233 220 180
304 329 822 385 1335 l13 120 104 22 c58 12 272 52 475 88 204 36 462 84 574
105 112 22 221 40 243 40 76 0 136 42 156 110 6 19 13 76 17 125 8 117 34 249
80 409 36 125 36 129 21 174 -8 26 -14 47 -13 48 1 1 101 45 222 97 273 118
617 274 833 378 91 43 167 79 169 79 1 0 3 -6 3 -14 0 -24 59 -75 93 -81 24
-5 70 7 182 48 256 93 757 258 806 266 3 1 0 -38 -7 -86z m-12757 -94 c431
-241 995 -482 1552 -663 183 -60 529 -162 669 -197 28 -7 52 -16 52 -19 0 -4
-82 -44 -182 -89 -204 -92 -844 -419 -1098 -561 -227 -127 -282 -167 -314
-232 -37 -73 -32 -124 17 -176 l22 -24 -240 -235 c-362 -356 -692 -671 -980
-939 -319 -296 -738 -674 -743 -669 -2 2 2 62 8 134 15 155 8 605 -10 729 -7
46 -10 85 -8 88 3 2 59 -25 125 -61 150 -81 196 -85 231 -18 16 29 15 85 0
105 -7 9 -98 76 -203 148 -104 73 -197 139 -207 148 -30 30 -77 226 -84 352
-7 133 -21 170 -77 211 -34 25 -48 48 -112 196 -150 350 -397 800 -731 1336
l-73 117 -6 195 c-4 127 -3 195 4 195 5 0 117 -22 248 -49 370 -77 416 -82
725 -88 300 -6 443 2 772 43 329 40 437 60 460 84 11 11 24 20 29 20 4 0 74
-37 154 -81z m10134 -841 c-16 -68 -37 -170 -45 -227 -9 -57 -17 -105 -18
-106 -7 -5 -189 -37 -192 -34 -7 7 21 262 34 308 6 24 9 54 6 66 -5 21 4 27
117 72 67 28 124 49 126 47 1 -1 -11 -58 -28 -126z m-536 -185 c-8 -121 -34
-241 -54 -247 -9 -3 -59 -12 -111 -21 -145 -24 -583 -105 -602 -111 -16 -5
-18 3 -18 78 l0 83 388 152 c213 83 390 152 395 152 4 1 5 -38 2 -86z m-6204
-88 l97 -17 71 -128 c39 -71 71 -132 71 -137 0 -5 -41 -26 -90 -47 -151 -64
-440 -214 -719 -374 -145 -84 -265 -151 -266 -149 -1 1 -88 117 -192 257 -105
140 -201 265 -216 278 -31 29 -92 38 -141 22 -68 -22 -114 -126 -84 -187 11
-22 249 -349 369 -509 6 -7 -28 -31 -92 -68 -55 -32 -101 -57 -103 -55 -2 2
-117 150 -256 329 -139 179 -257 331 -262 337 -18 23 869 450 1064 513 52 17
103 36 112 43 14 10 64 3 279 -39 144 -29 305 -60 358 -69z m1129 -169 c151
-19 372 -46 490 -60 118 -14 233 -28 255 -31 39 -6 41 -8 74 -83 96 -214 317
-600 535 -932 67 -102 125 -189 128 -195 4 -6 -32 -10 -100 -11 -126 -1 -197
-14 -311 -60 -183 -73 -349 -212 -445 -372 -47 -80 -116 -255 -116 -299 0 -62
-34 -24 -186 207 -187 286 -419 728 -694 1325 -84 182 -183 391 -220 465 l-68
135 192 -27 c105 -15 315 -43 466 -62z m3987 -253 c-11 -252 -48 -517 -108
-778 -33 -144 -114 -411 -128 -419 -5 -3 -12 10 -15 29 -19 99 -105 257 -170
312 -102 86 -243 86 -416 -2 -30 -15 -50 -21 -44 -14 76 101 350 436 444 544
112 129 430 472 439 474 2 1 1 -65 -2 -146z m-4597 -445 c308 -671 550 -1117
775 -1431 38 -54 76 -107 84 -117 13 -20 8 -20 -463 -20 l-476 0 0 -195 0
-195 840 0 840 0 0 195 0 195 -100 0 -100 0 0 63 c1 262 199 512 453 571 79
19 213 21 289 5 172 -36 355 -187 478 -397 48 -82 68 -100 123 -109 21 -3 41
-12 44 -19 10 -26 -41 -796 -82 -1249 -57 -615 -143 -1277 -235 -1807 l-12
-67 -168 -3 c-156 -3 -171 -5 -199 -25 -17 -13 -43 -23 -59 -23 -88 0 -230
-122 -292 -251 -21 -45 -40 -85 -42 -91 -2 -6 -89 5 -232 31 -931 168 -1835
427 -2609 746 -182 74 -483 208 -493 218 -2 2 3 96 11 208 35 492 63 1146 67
1629 3 306 3 308 -65 351 -41 26 -130 22 -170 -6 -51 -38 -55 -57 -62 -380 -7
-331 -30 -932 -45 -1180 -5 -88 -10 -166 -10 -172 0 -7 -8 -13 -18 -13 -55 0
-463 -356 -609 -531 -31 -38 -62 -69 -69 -69 -17 0 -303 174 -428 260 -610
423 -1090 980 -1430 1657 -73 147 -94 169 -163 167 -85 -2 -153 -75 -153 -164
0 -65 194 -429 361 -677 409 -606 1007 -1153 1626 -1489 40 -21 73 -41 72 -44
-1 -12 -293 -210 -298 -202 -3 4 -73 44 -156 87 -704 367 -1161 765 -1577
1375 -124 181 -370 596 -496 836 -11 20 4 35 180 190 630 554 1170 1057 1731
1613 l337 335 76 -74 c42 -41 130 -136 196 -210 205 -232 291 -293 412 -292
79 1 142 22 353 120 202 94 429 217 823 447 370 216 516 297 655 365 116 56
326 150 336 150 3 0 70 -141 149 -312z m-2336 -52 c136 -175 250 -324 252
-330 3 -8 -29 -24 -88 -44 -105 -36 -118 -38 -157 -17 -41 21 -564 566 -554
576 5 5 69 42 143 84 104 57 138 71 146 62 6 -7 122 -155 258 -331z m-2659
-3284 c52 -82 289 -393 371 -487 288 -328 670 -631 1101 -872 l104 -58 -113
-109 c-291 -279 -584 -539 -1253 -1111 -637 -545 -1211 -1065 -1276 -1156 -18
-26 -24 -52 -31 -138 -4 -58 -14 -169 -23 -246 -8 -77 -22 -226 -30 -331 -8
-104 -22 -217 -30 -250 -20 -75 -61 -160 -82 -168 -42 -17 -145 89 -289 298
-123 176 -242 300 -334 344 -189 92 -383 95 -720 11 -146 -36 -265 -47 -329
-29 -58 15 -107 65 -117 115 -11 59 9 84 82 106 115 35 205 146 191 234 -13
80 -67 119 -247 183 -63 22 -139 52 -169 66 -53 24 -54 25 -30 35 14 5 50 12
81 16 106 13 155 71 145 170 -9 92 -58 166 -147 225 -62 41 -90 72 -90 101 0
35 33 75 83 100 58 30 178 22 312 -20 141 -45 177 -33 235 79 24 45 897 1144
1209 1520 376 454 715 824 1020 1115 177 169 328 305 338 305 5 0 21 -21 38
-48z m3057 -629 c-3 -45 -7 -53 -30 -61 -15 -6 -63 -26 -106 -46 -53 -25 -75
-31 -65 -20 18 22 201 186 203 182 1 -2 0 -26 -2 -55z m858 -576 c753 -297
1582 -527 2483 -691 l232 -42 3 -112 c2 -96 0 -112 -13 -112 -31 0 -404 83
-629 140 -674 170 -1308 404 -1906 701 -233 116 -388 198 -350 186 8 -3 89
-34 180 -70z m3850 -348 c280 -18 396 -53 440 -131 24 -41 25 -51 23 -190 -6
-412 -104 -637 -302 -695 -111 -32 -400 -10 -630 48 -296 74 -361 156 -361
457 0 199 30 362 80 432 31 43 106 83 175 91 69 8 363 2 575 -12z m3690 -23
c0 -9 -202 -118 -324 -176 -497 -234 -1057 -390 -1684 -469 -265 -34 -653 -61
-869 -61 l-92 0 5 28 c3 15 8 50 12 77 l7 50 370 6 c368 7 529 16 805 45 667
70 1244 230 1610 447 63 37 106 57 128 57 17 0 32 -2 32 -4z m-19136 -2291
c42 -55 87 -113 99 -130 13 -16 45 -70 71 -120 43 -81 44 -87 17 -55 -40 45
-197 276 -245 360 -46 79 -39 73 58 -55z"/>
<path d="M34585 25789 c-590 -56 -1078 -533 -1260 -1234 -60 -232 -70 -318
-70 -625 0 -213 4 -300 18 -385 107 -669 408 -1232 861 -1610 208 -173 462
-300 717 -357 88 -19 131 -23 279 -23 156 1 187 4 282 27 454 114 811 444
1012 934 109 268 156 500 163 825 10 396 -47 731 -183 1076 -350 888 -1084
1442 -1819 1372z m935 -648 c30 -11 73 -37 95 -58 22 -20 62 -49 89 -65 119
-71 276 -219 368 -349 59 -82 123 -214 144 -299 64 -255 -103 -493 -379 -541
-218 -37 -423 73 -535 287 -131 253 -186 654 -122 895 16 58 51 101 110 132
48 25 63 28 115 24 33 -3 85 -14 115 -26z m-372 -1086 c121 -36 176 -189 113
-313 -76 -149 -303 -141 -372 13 -21 45 -24 112 -8 169 21 74 112 144 190 146
14 0 48 -7 77 -15z"/>
<path d="M27025 24651 c-322 -60 -572 -180 -825 -396 -227 -194 -446 -513
-563 -821 -126 -329 -185 -729 -159 -1074 30 -394 119 -724 282 -1052 305
-610 838 -1049 1420 -1168 557 -113 1121 46 1524 431 180 172 290 323 403 554
151 309 223 649 223 1050 0 464 -99 893 -298 1290 -315 630 -827 1054 -1420
1176 -144 30 -451 35 -587 10z m-451 -914 c151 -100 276 -274 328 -454 32
-113 32 -288 0 -392 -68 -217 -181 -359 -379 -477 -223 -133 -360 -147 -460
-47 -24 23 -43 47 -43 54 0 6 -20 30 -44 53 -54 53 -76 120 -87 261 -4 55 -16
127 -27 161 -91 273 -24 520 172 634 28 16 67 32 88 35 33 6 46 17 98 85 78
102 134 133 231 128 57 -3 75 -9 123 -41z m442 -1112 c90 -26 164 -128 164
-224 0 -83 -95 -207 -195 -252 -52 -24 -138 -24 -190 0 -92 42 -155 157 -135
248 14 61 31 92 77 134 109 103 175 125 279 94z"/>
<path d="M36339 21653 c-8 -10 -28 -38 -44 -63 -48 -72 -183 -207 -255 -255
-85 -56 -188 -100 -309 -132 -79 -21 -128 -26 -276 -30 -199 -6 -345 8 -576
53 -122 23 -133 24 -155 9 -60 -39 -52 -126 16 -171 65 -43 219 -105 340 -136
150 -39 381 -50 529 -24 287 50 525 194 693 419 57 77 132 217 144 269 12 55
-73 103 -107 61z"/>
<path d="M32898 20815 c-3 -3 -455 -9 -1004 -13 -920 -7 -1002 -9 -1031 -25
-33 -17 -63 -62 -63 -92 0 -9 -18 -33 -41 -53 -98 -88 -116 -171 -129 -590 -5
-162 -15 -371 -21 -465 -17 -237 -18 -868 -1 -1027 32 -311 89 -583 166 -794
191 -524 530 -848 1027 -981 449 -119 949 -40 1339 213 339 220 536 514 619
928 73 363 65 1016 -20 1694 -22 174 -87 583 -114 710 -64 308 -179 444 -412
485 -76 14 -304 21 -315 10z m308 -324 c54 -24 79 -62 103 -152 126 -467 223
-1408 200 -1950 -14 -342 -48 -509 -143 -704 -65 -132 -124 -212 -240 -323
-309 -296 -790 -417 -1222 -307 -345 88 -612 303 -770 620 -131 266 -204 558
-235 950 -13 168 -7 838 10 1015 12 127 45 638 46 696 0 37 3 43 35 60 22 12
42 34 55 61 l20 42 580 3 c1625 9 1516 9 1561 -11z"/>
<path d="M28728 20146 c-305 -153 -592 -218 -958 -218 -234 0 -465 30 -684 89
-54 14 -67 15 -81 3 -30 -25 -14 -61 47 -110 106 -85 260 -150 453 -192 136
-30 465 -32 629 -5 132 23 323 74 429 116 157 63 352 174 407 233 22 24 27 77
10 109 -12 22 -61 49 -87 48 -10 0 -84 -33 -165 -73z"/>
<path d="M42302 15362 c-38 -12 -91 -61 -100 -94 -4 -17 -4 -61 0 -97 4 -36 8
-154 8 -261 2 -405 -76 -743 -251 -1099 -88 -177 -93 -204 -51 -261 38 -51 82
-72 140 -68 68 6 89 26 153 150 183 357 289 764 306 1173 6 157 -9 398 -29
457 -26 79 -101 121 -176 100z"/>
<path d="M32689 11396 c-178 -9 -214 -13 -203 -24 8 -7 14 -9 14 -4 0 5 7 9
15 9 13 0 15 -32 15 -225 l0 -224 173 6 c94 4 193 9 218 12 l46 5 -4 92 c-18
380 -16 362 -38 363 -11 1 -117 -4 -236 -10z"/>
<path d="M32406 11372 c-2 -4 4 -8 14 -8 10 0 16 4 14 8 -3 4 -9 8 -14 8 -5 0
-11 -4 -14 -8z"/>
<path d="M31830 11358 c-85 -4 -267 -14 -405 -21 -210 -10 -250 -14 -250 -27
0 -8 4 -111 9 -227 l8 -213 87 1 c132 1 1226 56 1146 58 -41 0 -77 6 -84 14
-11 10 -12 9 -6 -3 5 -9 -1 -7 -15 5 -13 11 -20 14 -16 8 8 -14 -6 -15 -131
-18 -61 -2 -63 -1 -63 24 0 20 -2 23 -10 11 -8 -13 -10 -13 -10 2 0 9 8 19 18
21 16 4 16 5 0 6 -15 1 -18 11 -18 56 0 30 5 55 10 55 6 0 10 5 10 11 0 5 -5
7 -11 3 -8 -4 -8 0 0 15 9 16 9 21 -1 22 -7 0 -4 4 7 9 17 7 17 9 3 9 -16 1
-18 12 -18 96 l0 95 -52 -1 c-29 -1 -123 -6 -208 -11z"/>
<path d="M32126 11161 c-4 -24 -5 -46 -2 -48 7 -7 19 63 14 79 -3 7 -8 -7 -12
-31z"/>
<path d="M32152 11150 c0 -14 2 -19 5 -12 2 6 2 18 0 25 -3 6 -5 1 -5 -13z"/>
<path d="M32110 11089 c0 -5 5 -7 10 -4 6 3 10 8 10 11 0 2 -4 4 -10 4 -5 0
-10 -5 -10 -11z"/>
<path d="M32140 11063 c0 -5 5 -15 10 -23 7 -12 9 -10 7 8 -1 19 -17 33 -17
15z"/>
<path d="M32100 11039 c0 -15 18 -19 23 -6 3 8 -1 14 -9 14 -8 0 -14 -4 -14
-8z"/>
<path d="M32128 10973 c7 -3 16 -2 19 1 4 3 -2 6 -13 5 -11 0 -14 -3 -6 -6z"/>
<path d="M32141 10950 c10 -7 49 -2 49 5 0 2 -14 3 -31 3 -17 -1 -25 -4 -18
-8z"/>
<path d="M32248 10953 c7 -3 16 -2 19 1 4 3 -2 6 -13 5 -11 0 -14 -3 -6 -6z"/>
<path d="M31630 10760 c-252 -18 -248 -17 -291 -63 -48 -52 -57 -82 -36 -119
30 -52 461 -572 534 -644 54 -53 69 -74 62 -86 -5 -8 -38 -248 -73 -533 -36
-285 -67 -519 -68 -521 -2 -1 -37 3 -79 11 -209 36 -391 166 -472 337 -89 187
-96 372 -38 993 44 468 44 466 -13 477 -44 9 -84 -16 -96 -60 -12 -47 -76
-729 -86 -917 -11 -229 18 -398 96 -560 78 -162 193 -271 372 -354 134 -62
200 -76 373 -76 123 1 164 4 225 22 41 12 87 19 102 16 21 -4 34 2 56 24 16
15 67 51 113 78 115 69 305 256 388 384 137 210 220 444 266 751 24 162 41
601 26 673 -23 106 -77 141 -240 158 -128 13 -963 20 -1121 9z m965 -150 c110
-6 210 -15 221 -20 26 -10 39 -78 29 -151 -6 -46 -8 -47 -30 -37 -48 22 -70 4
-125 -99 -112 -208 -201 -313 -317 -370 -51 -24 -69 -28 -148 -28 -78 0 -96 4
-140 27 -106 57 -152 105 -420 433 -144 178 -183 231 -168 233 138 20 801 27
1098 12z m241 -462 c-23 -385 -116 -688 -284 -928 -79 -113 -280 -306 -299
-287 -14 14 76 441 143 681 30 108 32 123 19 142 -14 21 -12 23 38 48 125 61
265 219 353 399 15 31 30 57 33 57 2 0 1 -51 -3 -112z m-737 -384 c25 -8 74
-16 111 -16 l66 -2 -33 -115 c-47 -166 -108 -452 -134 -626 -13 -82 -27 -155
-31 -162 -9 -12 -155 -50 -162 -42 -3 3 118 965 123 977 2 5 17 1 60 -14z"/>
<path d="M32082 10463 c-17 -7 -44 -61 -37 -74 4 -5 -7 -25 -24 -44 -70 -80
-46 -211 50 -264 105 -59 252 25 266 153 10 88 -44 178 -132 217 -38 18 -95
23 -123 12z m106 -200 c3 -20 -21 -53 -39 -53 -19 0 -20 29 -2 54 21 29 37 29
41 -1z"/>
<path d="M29915 10638 c-56 -57 -77 -88 -99 -142 -71 -178 -32 -372 100 -495
85 -80 149 -105 269 -105 189 0 345 101 405 261 49 129 7 295 -100 403 -74 73
-163 113 -269 120 -47 3 -96 11 -108 18 -12 6 -45 12 -75 12 -52 0 -53 -1
-123 -72z m366 -296 c64 -71 12 -152 -96 -152 -69 0 -121 83 -102 162 6 22 11
23 87 23 79 0 82 -1 111 -33z"/>
<path d="M29824 9161 c-95 -25 -175 -90 -209 -173 -13 -31 -30 -51 -54 -64
-59 -31 -86 -98 -86 -214 0 -204 97 -348 276 -409 134 -45 261 -18 360 76 94
89 139 204 139 353 0 251 -132 427 -328 436 -37 2 -81 0 -98 -5z m112 -326
c34 -82 7 -239 -43 -251 -67 -17 -123 39 -123 122 0 36 4 43 29 54 36 14 66
46 80 83 14 37 39 34 57 -8z"/>
<path d="M27255 10613 c-457 -10 -704 -19 -730 -26 -31 -9 -42 -19 -50 -43 -6
-17 -16 -39 -24 -48 -15 -18 -33 -149 -71 -513 -24 -229 -26 -457 -5 -574 90
-517 563 -911 1049 -874 56 4 124 8 152 9 32 1 59 7 70 17 11 9 52 30 92 47
119 50 210 110 305 201 202 195 281 395 294 741 6 172 -6 362 -33 530 -9 52
-15 115 -15 139 0 24 -6 55 -13 70 -8 14 -23 61 -35 104 -26 96 -62 168 -96
195 -29 23 -108 43 -163 40 -20 -1 -347 -8 -727 -15z m803 -162 c10 -17 29
-75 42 -129 l23 -100 -23 -38 c-72 -120 -181 -224 -292 -280 -295 -150 -656
12 -972 436 l-78 105 284 7 c503 14 912 25 956 26 37 2 45 -2 60 -27z m-1409
-108 c190 -277 408 -482 607 -569 l66 -29 -6 -260 c-5 -240 -26 -507 -57 -707
-13 -89 -13 -89 -107 -62 -123 36 -249 111 -356 213 -126 122 -214 274 -258
447 -20 78 -22 113 -21 274 0 102 8 248 16 325 36 327 51 455 53 455 2 0 30
-39 63 -87z m1525 -395 c3 -29 9 -134 12 -233 10 -272 -14 -421 -92 -580 -75
-154 -203 -285 -353 -360 l-54 -27 7 39 c25 150 78 543 96 718 12 116 24 215
26 222 2 7 29 25 61 42 80 40 169 108 228 173 28 31 53 56 56 57 4 1 9 -23 13
-51z m-514 -258 c0 -79 -123 -976 -135 -989 -2 -1 -31 -6 -65 -10 l-62 -8 6
46 c44 322 56 453 63 729 l6 242 94 0 c55 0 93 -4 93 -10z"/>
<path d="M27464 10381 c-55 -34 -74 -77 -74 -172 0 -115 13 -155 69 -210 73
-74 157 -87 232 -36 56 37 74 80 74 172 -1 86 -24 156 -68 204 -54 58 -172 79
-233 42z m120 -146 c33 -33 45 -155 15 -155 -6 0 -21 11 -34 25 -21 20 -25 34
-25 85 0 64 12 76 44 45z"/>
</g>
</svg>
