<?xml version="1.0" standalone="no"?>
<!DOCTYPE svg PUBLIC "-//W3C//DTD SVG 20010904//EN"
 "http://www.w3.org/TR/2001/REC-SVG-20010904/DTD/svg10.dtd">
<svg version="1.0" xmlns="http://www.w3.org/2000/svg"
 width="300.000000pt" height="300.000000pt" viewBox="0 0 300.000000 300.000000"
 preserveAspectRatio="xMidYMid meet">
<metadata>
Created by potrace 1.14, written by Peter Selinger 2001-2017
</metadata>
<g transform="translate(0.000000,300.000000) scale(0.100000,-0.100000)"
fill="#000000" stroke="none">
<path d="M0 1500 l0 -1500 1500 0 1500 0 0 1500 0 1500 -1500 0 -1500 0 0
-1500z m1840 935 c-14 -8 -20 -14 -15 -14 6 0 21 6 35 14 37 21 40 19 40 -25
0 -35 3 -40 23 -40 36 0 38 -10 10 -46 l-25 -34 56 0 c31 0 56 4 56 9 0 5 10
13 22 17 25 8 58 -25 58 -58 0 -10 4 -16 10 -13 6 4 4 17 -5 35 -19 36 -19 40
1 40 8 0 21 -15 29 -34 21 -49 39 -58 31 -15 l-7 34 29 -35 c24 -28 33 -32 44
-22 12 9 19 7 37 -12 14 -15 20 -30 16 -37 -5 -8 -4 -10 3 -5 13 8 52 -49 52
-76 0 -25 -12 -22 -40 7 -23 24 -23 24 -37 5 -19 -27 -26 -25 -47 15 -21 38
-40 45 -50 19 -17 -43 29 -73 92 -60 22 5 29 2 38 -18 7 -15 8 -30 2 -40 -7
-12 -5 -29 5 -54 8 -21 13 -50 10 -65 -4 -18 -1 -27 7 -27 9 0 11 -13 8 -45
-4 -33 -2 -45 8 -45 9 0 12 -13 10 -42 -3 -43 10 -86 29 -101 6 -5 3 -7 -7 -3
-26 8 -24 -45 1 -61 17 -11 20 -8 26 23 4 25 10 34 20 30 9 -3 20 4 26 16 9
17 9 23 0 26 -6 2 -11 13 -11 24 0 41 25 10 28 -35 2 -37 0 -47 -12 -47 -16 0
-33 -61 -21 -79 3 -6 2 -11 -4 -11 -6 0 -8 -7 -4 -15 3 -9 -2 -22 -13 -30 -27
-21 -34 -18 -34 13 -1 27 -1 27 -18 7 -14 -17 -52 -40 -52 -32 0 1 4 17 10 35
8 30 7 32 -6 21 -12 -9 -17 -10 -23 -1 -4 7 -19 -5 -41 -34 -19 -25 -44 -57
-56 -71 l-21 -27 -7 40 c-18 107 -29 134 -53 134 -16 0 -21 -4 -17 -15 4 -8 1
-15 -5 -15 -24 0 -9 -22 24 -36 20 -8 33 -19 30 -24 -3 -5 -1 -19 6 -31 10
-19 9 -21 -4 -16 -11 4 -18 -1 -22 -14 -6 -18 -19 -18 -21 -1 -1 19 -41 89
-56 100 -25 18 -6 63 35 82 17 8 35 13 40 12 4 -1 7 9 7 23 0 14 -5 25 -11 25
-20 0 -49 -21 -49 -36 0 -26 -23 -9 -24 18 -1 14 -13 43 -27 64 -14 22 -29 47
-32 58 -6 15 -10 16 -22 6 -8 -7 -15 -10 -15 -6 0 4 -14 -1 -31 -10 -36 -18
-49 -9 -49 38 0 14 -3 34 -7 44 -5 14 -2 16 20 12 15 -3 28 -1 28 3 2 13 5 22
14 42 4 10 3 29 -4 43 -9 20 -8 26 4 30 16 7 14 46 -3 52 -6 2 -14 -8 -18 -22
-7 -31 -19 -33 -36 -6 -7 11 -18 20 -25 20 -7 0 -13 4 -13 10 0 5 6 7 14 4 21
-8 31 21 35 103 1 6 11 15 23 19 21 6 21 7 3 20 -23 17 -38 18 -29 2 6 -10 4
-10 -7 0 -7 6 -35 12 -61 12 -46 0 -48 -1 -48 -28 0 -15 -5 -33 -12 -40 -9 -9
-7 -17 8 -33 l19 -22 -32 6 c-18 4 -52 16 -75 27 -53 25 -67 25 -123 -2 -40
-19 -45 -26 -45 -55 0 -24 5 -33 16 -33 14 0 14 3 4 15 -10 12 -9 15 4 15 24
0 58 -19 51 -30 -3 -5 0 -19 5 -32 10 -21 18 -23 81 -24 39 -1 74 -5 77 -11
13 -19 56 -23 73 -7 15 13 17 13 23 -3 4 -9 4 -14 0 -10 -4 4 -23 -7 -41 -25
-29 -28 -36 -31 -53 -20 -18 11 -22 8 -40 -29 -19 -36 -20 -42 -6 -52 20 -15
29 -86 14 -104 -6 -7 -8 -17 -4 -21 10 -10 38 29 32 45 -7 16 27 17 56 2 15
-8 27 -8 44 0 16 7 24 7 24 1 0 -6 -10 -14 -22 -19 -13 -5 -36 -23 -53 -41
-16 -17 -42 -41 -57 -52 -25 -17 -30 -18 -48 -5 -18 13 -19 16 -5 27 8 7 15
20 15 28 0 11 -13 3 -40 -23 -45 -44 -49 -55 -20 -62 26 -7 25 -20 -2 -29 -14
-4 -25 -1 -33 10 -8 10 -26 16 -51 15 -30 0 -34 -2 -19 -8 11 -5 27 -6 35 -3
12 4 13 2 3 -9 -18 -18 -16 -29 5 -29 10 0 23 -5 30 -12 9 -9 12 -8 12 4 0 15
27 18 73 9 17 -3 5 -19 -22 -31 -19 -7 -28 -17 -24 -26 3 -8 -1 -14 -11 -14
-28 0 -17 -31 15 -42 17 -6 28 -16 26 -22 -3 -7 4 -18 14 -24 10 -7 19 -19 19
-28 0 -8 -4 -13 -9 -9 -5 3 -13 1 -16 -5 -5 -8 -12 -7 -22 2 -12 10 -17 9 -27
-4 -11 -15 -19 -9 -71 53 -57 69 -58 71 -56 127 2 64 -20 148 -37 144 -15 -3
-16 15 -2 20 6 2 5 19 -4 48 -13 41 -14 42 -15 15 -2 -51 -12 -75 -32 -75 -13
0 -21 -12 -30 -42 l-11 -43 -19 24 -20 24 -24 -23 c-29 -27 -26 -34 25 -60 50
-26 53 -25 46 6 -7 25 -6 26 11 8 10 -10 18 -24 18 -33 0 -8 17 -24 38 -35 20
-11 37 -23 37 -27 0 -23 -198 -21 -226 2 -7 6 -16 9 -20 8 -5 -1 -19 -1 -32 0
-18 1 -23 6 -20 24 2 18 10 22 43 24 64 2 65 3 65 11 0 12 -70 32 -110 32 -28
0 -31 2 -20 15 17 20 5 32 -15 15 -9 -7 -18 -11 -20 -8 -9 8 6 38 16 32 5 -3
9 -1 9 5 0 6 -14 18 -31 27 -26 13 -33 14 -40 2 -6 -9 -9 -7 -9 10 0 14 -6 22
-17 22 -10 0 -30 8 -45 18 -26 17 -26 18 -8 30 11 7 33 12 50 12 16 0 50 5 74
12 38 10 48 10 63 -4 29 -25 63 -29 63 -8 0 38 -84 107 -122 101 -5 0 -8 3 -8
8 0 19 -39 -2 -76 -40 -37 -38 -64 -50 -64 -29 0 19 -20 10 -47 -20 -14 -16
-32 -30 -39 -30 -22 0 -27 -21 -8 -35 15 -10 16 -16 6 -27 -6 -8 -10 -18 -7
-21 3 -4 2 -5 -1 -3 -3 3 -23 -4 -44 -15 -29 -15 -37 -25 -33 -40 6 -21 -14
-52 -28 -43 -5 3 -9 -8 -9 -25 0 -39 15 -47 34 -19 13 19 19 20 41 10 36 -16
36 -16 88 23 25 19 48 35 51 35 19 0 0 -51 -30 -83 -20 -21 -35 -40 -33 -42 2
-2 26 -5 52 -6 34 -2 51 1 58 11 8 11 12 12 16 3 3 -8 23 -13 51 -12 l47 1
-37 10 c-27 7 -38 16 -38 29 0 12 -11 22 -32 28 -31 9 -30 9 20 10 37 1 54 5
58 16 4 8 10 15 15 15 4 0 6 -7 3 -15 -4 -10 0 -15 15 -15 14 0 20 -6 19 -17
-1 -10 2 -33 7 -52 8 -31 10 -33 43 -27 20 3 41 1 48 -5 8 -6 20 -6 38 1 35
13 33 4 -3 -14 -16 -9 -32 -12 -36 -8 -11 11 23 -69 38 -87 6 -9 18 -20 25
-24 8 -5 11 -18 8 -31 -5 -21 5 -29 67 -50 20 -6 24 -52 5 -59 -8 -3 3 -21 30
-50 50 -51 39 -71 -15 -30 -23 17 -33 20 -33 10 0 -8 -10 -19 -22 -25 l-23
-11 26 0 c14 -1 29 -5 35 -10 5 -5 40 -21 78 -36 55 -21 70 -24 77 -13 5 7 9
16 9 21 0 4 9 7 20 7 30 0 24 14 -12 33 -26 12 -29 16 -13 16 11 1 31 -6 43
-15 12 -8 27 -12 32 -9 6 3 10 2 10 -3 0 -11 118 -70 150 -74 23 -3 25 1 28
37 2 32 -3 49 -25 77 -15 21 -32 37 -36 38 -14 0 -68 -41 -63 -48 2 -4 -10 -7
-28 -7 -23 0 -46 12 -84 44 -29 25 -62 46 -73 48 -19 3 -20 0 -14 -37 7 -43 5
-46 -26 -29 -14 7 -17 14 -11 22 5 7 8 24 6 40 -2 18 2 27 12 27 8 0 14 7 14
15 0 8 -6 15 -14 15 -30 0 -76 35 -76 58 0 15 -6 22 -19 22 -11 0 -22 4 -25 9
-4 5 11 7 34 4 39 -5 40 -5 59 38 l19 43 8 -40 c3 -21 12 -50 19 -64 6 -14 10
-33 7 -43 -2 -10 5 -25 15 -32 24 -19 39 -19 23 0 -8 9 -9 15 -2 15 6 0 14 -4
17 -10 3 -5 15 -10 27 -10 15 0 18 4 13 18 -4 9 -9 34 -12 55 -5 33 -4 37 13
31 11 -4 28 -14 38 -23 15 -12 20 -13 23 -3 3 7 16 26 29 41 13 16 24 34 24
40 0 14 38 34 50 26 6 -3 10 -1 10 5 0 7 13 -2 29 -19 33 -35 46 -38 55 -15 6
15 -17 43 -36 44 -5 0 -8 6 -8 14 0 17 -41 16 -62 -1 -10 -8 -20 -8 -38 2 -20
11 -21 14 -7 15 17 0 47 22 47 34 0 3 -7 3 -15 0 -20 -8 -19 11 3 32 9 10 17
25 17 33 0 10 14 19 38 25 40 10 49 33 22 56 -8 7 -15 8 -15 3 0 -11 -84 -53
-106 -53 -27 0 -9 23 35 47 24 12 49 27 55 31 21 17 75 31 81 21 10 -15 41
-10 68 11 20 16 27 17 35 7 7 -8 7 -18 2 -27 -9 -15 26 -90 42 -90 12 0 9 -12
-7 -34 -12 -16 -17 -17 -30 -6 -12 10 -16 9 -21 -4 -3 -9 -3 -23 0 -32 4 -9 1
-23 -5 -30 -9 -11 -8 -14 5 -14 9 0 16 -8 16 -20 0 -18 7 -20 56 -20 l55 0 -3
-42 c-3 -38 -6 -43 -36 -50 -29 -8 -36 -5 -63 22 -23 23 -30 36 -25 54 3 13 3
26 -1 30 -10 10 -31 -47 -28 -76 3 -30 47 -128 56 -128 4 0 12 14 18 30 11 33
17 35 56 20 19 -7 26 -16 24 -33 -4 -33 10 -67 25 -61 20 8 46 -35 46 -76 0
-40 -14 -68 -24 -51 -15 24 -22 9 -16 -34 11 -74 -6 -60 -19 15 -7 39 -17 70
-23 70 -6 0 -7 -7 -3 -17 12 -26 19 -89 10 -81 -5 4 -19 25 -31 45 -13 21 -24
31 -24 23 0 -9 11 -31 24 -51 37 -54 54 -101 48 -137 -5 -36 4 -41 24 -14 10
14 16 15 31 5 10 -6 17 -17 15 -23 -1 -7 -3 -27 -4 -46 -1 -27 -6 -36 -24 -40
-32 -8 -44 2 -44 37 0 31 -1 32 -24 23 -18 -7 -22 -39 -6 -49 6 -3 10 -10 10
-16 0 -15 -26 -10 -41 7 -10 13 -10 17 2 24 12 8 12 11 0 22 -11 10 -14 10
-18 1 -7 -18 -42 -16 -50 3 -7 19 7 35 36 37 11 1 21 5 21 9 0 4 4 8 10 8 5 0
7 -7 4 -15 -4 -11 -2 -13 9 -9 9 3 17 23 20 52 4 40 0 54 -24 89 -16 23 -29
44 -29 48 0 3 -10 29 -21 56 -19 44 -23 48 -35 32 -12 -17 -13 -17 -20 0 -5
14 -9 16 -15 6 -5 -9 -13 -3 -26 21 -10 18 -27 43 -39 54 -12 12 -27 32 -34
46 -12 23 -14 23 -20 6 -6 -18 -8 -18 -24 5 -14 20 -18 22 -26 9 -16 -24 -12
-39 9 -33 16 4 21 -5 35 -65 22 -96 29 -111 70 -156 34 -37 38 -38 81 -33 47
7 48 6 39 -31 -6 -21 -8 -22 -29 -8 -13 8 -25 13 -27 11 -2 -3 -1 -28 2 -57 6
-40 4 -55 -7 -61 -7 -5 -11 -12 -8 -18 4 -5 1 -9 -4 -9 -6 0 -11 -4 -11 -9 0
-5 9 -7 19 -4 13 3 18 10 14 21 -4 10 -2 13 6 8 15 -10 11 -74 -6 -88 -8 -6
-11 -19 -8 -29 4 -12 1 -21 -9 -25 -24 -9 -19 -21 10 -27 19 -3 35 2 55 21 27
24 28 27 14 49 -18 27 -9 31 11 6 18 -24 18 -26 -12 -59 -17 -18 -22 -30 -15
-32 7 -2 18 3 24 12 7 8 30 21 52 28 29 10 39 18 37 31 -2 9 1 17 5 17 12 0
83 -107 76 -114 -12 -12 -91 -6 -96 7 -3 7 -6 5 -6 -5 -1 -13 7 -18 24 -18 16
0 25 -6 25 -15 0 -8 -9 -15 -20 -15 -11 0 -20 3 -20 8 0 17 -141 65 -154 52
-6 -6 1 -13 17 -19 27 -11 37 -37 15 -38 -7 0 -34 -4 -60 -8 -31 -5 -48 -4
-48 3 0 5 -17 13 -37 17 -35 7 -36 8 -15 16 19 7 21 12 12 29 -15 29 -50 46
-61 29 -4 -7 -4 -18 0 -24 4 -5 11 -19 15 -29 6 -17 5 -17 -10 -5 -10 8 -30
26 -45 42 -29 29 -44 33 -54 17 -10 -16 -22 -12 -28 10 -3 10 0 21 7 23 7 3 2
14 -13 30 -13 15 -28 24 -34 20 -6 -3 -7 -1 -3 5 4 7 2 12 -5 12 -7 0 -9 3 -6
7 4 3 2 13 -5 20 -9 11 -9 17 3 23 9 7 15 5 17 -5 2 -8 12 -15 23 -15 10 0 20
-4 20 -10 5 -40 21 -60 68 -83 42 -21 81 -25 81 -9 0 3 -10 16 -22 29 -19 20
-19 23 -4 23 9 0 14 4 11 10 -9 15 11 12 24 -4 8 -9 8 -15 1 -18 -5 -1 -1 -9
10 -16 18 -11 21 -11 18 4 -4 25 18 29 25 4 8 -31 7 -35 -9 -32 -8 2 -14 -1
-14 -6 0 -10 60 -23 60 -13 7 80 6 102 -2 107 -5 3 -7 17 -4 29 7 27 -13 52
-50 61 -27 7 -26 6 -18 28 3 9 14 16 23 16 13 0 13 2 2 9 -19 12 -41 3 -34
-15 6 -16 -1 -17 -43 -5 l-31 9 14 -30 c9 -16 23 -32 32 -34 9 -3 29 -12 45
-20 22 -11 32 -12 42 -3 24 20 15 -3 -11 -27 -28 -26 -61 -23 -85 8 -13 16
-20 17 -44 8 -33 -12 -31 -13 -41 19 -6 20 -4 23 9 18 44 -18 50 -19 28 -2
-13 9 -32 15 -42 12 -11 -3 -19 -2 -18 2 3 28 -4 52 -14 48 -7 -2 -21 3 -31
11 -16 15 -17 14 -11 -4 6 -16 3 -15 -21 6 -23 20 -21 16 8 -19 23 -28 34 -48
28 -54 -13 -13 -23 -4 -51 49 -18 34 -22 48 -12 51 26 10 10 23 -28 23 -36 0
-40 -2 -40 -25 0 -18 -5 -25 -20 -25 -11 0 -20 7 -20 15 0 21 -24 29 -49 16
-11 -6 -22 -7 -25 -2 -7 11 -54 20 -58 11 -2 -4 -29 -11 -62 -15 -32 -3 -66
-10 -75 -15 -9 -5 -25 -11 -35 -15 -18 -5 -18 -7 3 -29 23 -25 16 -41 -13 -30
-29 11 -21 78 14 117 17 19 30 40 30 45 0 17 -29 29 -82 34 -38 4 -48 2 -48
-9 0 -8 -8 -13 -17 -12 -28 4 -62 -11 -73 -32 -6 -10 -17 -19 -25 -19 -17 0
-20 -35 -5 -45 14 -9 3 -25 -17 -25 -12 0 -14 7 -10 29 6 26 3 30 -21 35 -15
3 -54 4 -87 3 -49 -2 -65 -7 -85 -27 -15 -15 -25 -19 -28 -12 -2 7 -11 12 -21
12 -9 0 -23 6 -29 12 -10 10 -15 10 -22 -2 -5 -8 -11 -12 -12 -10 -2 3 -12 17
-21 32 -16 26 -16 28 1 37 13 8 14 12 4 19 -10 7 -10 11 1 21 8 6 19 10 23 9
5 -2 10 1 11 6 0 5 8 13 17 18 8 5 13 15 10 23 -8 21 41 38 67 24 17 -9 20 -7
17 8 -3 19 2 20 85 9 20 -2 35 0 32 4 -3 4 3 6 14 3 10 -3 22 0 26 7 5 7 -7
10 -37 9 -23 0 -70 1 -102 4 -53 5 -63 2 -92 -20 -22 -16 -40 -23 -54 -18 -29
9 -25 -4 6 -15 14 -6 22 -14 19 -20 -4 -6 -17 -4 -35 5 -36 18 -54 19 -47 2 6
-15 -50 -11 -70 5 -22 17 -15 37 9 30 l23 -5 -20 24 -20 23 28 -18 c49 -30 41
-10 -8 24 l-47 32 36 37 c20 21 34 40 31 43 -3 3 -26 4 -50 2 -25 -3 -45 -2
-45 0 0 3 11 16 24 31 20 22 25 23 36 10 14 -17 40 -20 40 -6 0 6 -4 13 -10
16 -17 11 -11 24 20 40 38 20 40 19 40 -12 0 -26 0 -26 20 -8 12 10 19 24 16
31 -3 7 4 16 14 19 30 10 80 79 80 111 0 16 -4 24 -8 18 -4 -6 -54 -14 -116
-17 -82 -5 -113 -10 -127 -23 -19 -17 -19 -17 -5 18 26 62 56 110 107 171 28
33 36 37 79 37 27 0 52 4 55 10 3 6 -1 7 -12 4 -10 -3 -1 10 20 29 50 46 47
54 -10 23 -25 -15 -47 -25 -49 -24 -8 8 129 112 181 138 71 36 226 76 331 85
l76 8 19 46 c26 63 50 104 95 168 33 44 53 60 124 95 110 54 109 53 80 29 -14
-11 -19 -21 -12 -21 18 0 102 50 102 61 0 4 7 6 15 3 10 -4 15 0 15 15 0 18 6
21 38 21 20 1 60 7 87 15 28 7 61 14 75 14 l25 0 -25 -14z m-255 -35 c-3 -5
-12 -10 -18 -10 -7 0 -6 4 3 10 19 12 23 12 15 0z m469 -15 c-22 -17 -34 -19
-34 -6 0 5 8 12 18 14 32 9 36 7 16 -8z m109 -60 c-7 -21 -13 -19 -13 6 0 11
4 18 10 14 5 -3 7 -12 3 -20z m-443 -285 c0 -5 -4 -10 -10 -10 -5 0 -10 5 -10
10 0 6 5 10 10 10 6 0 10 -4 10 -10z m723 -155 c-4 -11 -6 -28 -5 -37 1 -17 0
-17 -18 0 -17 16 -24 38 -21 75 1 17 2 17 26 0 17 -13 22 -24 18 -38z m-619
-27 c7 -12 6 -21 -4 -33 -16 -19 -30 -4 -30 33 0 26 17 26 34 0z m563 -40 c-3
-7 -5 -2 -5 12 0 14 2 19 5 13 2 -7 2 -19 0 -25z m17 -44 c3 -8 2 -12 -4 -9
-6 3 -10 10 -10 16 0 14 7 11 14 -7z m36 -8 c0 -3 -4 -8 -10 -11 -5 -3 -10 -1
-10 4 0 6 5 11 10 11 6 0 10 -2 10 -4z m-1520 -62 c-18 -21 -24 -10 -9 18 8
14 14 18 17 10 2 -7 -2 -19 -8 -28z m-5 -64 c-23 -26 -39 -26 -23 -1 7 11 16
17 20 15 4 -3 8 0 8 7 0 7 3 9 7 6 3 -4 -2 -16 -12 -27z m78 -13 c3 -8 1 -20
-4 -28 -6 -10 -9 -7 -9 14 0 29 5 35 13 14z m397 -37 c0 -5 -5 -10 -11 -10 -5
0 -7 5 -4 10 3 6 8 10 11 10 2 0 4 -4 4 -10z m40 -20 c0 -5 -5 -10 -11 -10 -5
0 -7 5 -4 10 3 6 8 10 11 10 2 0 4 -4 4 -10z m1027 -32 c-3 -7 -5 -2 -5 12 0
14 2 19 5 13 2 -7 2 -19 0 -25z m-1032 -18 c3 -5 1 -10 -4 -10 -6 0 -11 5 -11
10 0 6 2 10 4 10 3 0 8 -4 11 -10z m1030 -53 c-3 -18 -6 -41 -9 -52 -2 -11 -5
-22 -6 -25 0 -3 -5 3 -11 13 -6 11 -8 38 -4 68 6 40 10 48 20 39 8 -7 12 -24
10 -43z m-1869 8 c-4 -14 -11 -25 -16 -25 -13 0 -13 16 1 42 14 26 23 16 15
-17z m891 -59 c-3 -8 -16 -20 -28 -26 -17 -10 -20 -9 -14 2 24 41 55 59 42 24z
m-1073 -1 c3 -8 1 -15 -4 -15 -6 0 -10 7 -10 15 0 8 2 15 4 15 2 0 6 -7 10
-15z m104 -7 c-3 -7 -13 -15 -24 -17 -16 -3 -17 -1 -5 13 16 19 34 21 29 4z
m1636 6 c15 -6 11 -34 -6 -34 -5 0 -6 5 -3 10 3 6 1 10 -4 10 -6 0 -11 5 -11
10 0 12 3 12 24 4z m-747 -64 c1 -11 -3 -20 -8 -20 -6 0 -7 5 -4 10 3 6 2 10
-4 10 -5 0 -13 -4 -16 -10 -3 -5 -15 -15 -26 -20 -15 -9 -19 -7 -19 5 0 9 15
22 33 30 42 19 42 18 44 -5z m853 10 c0 -5 -7 -10 -15 -10 -8 0 -15 5 -15 10
0 6 7 10 15 10 8 0 15 -4 15 -10z m-73 -46 c8 -20 -8 -36 -26 -25 -15 10 -8
41 9 41 6 0 13 -7 17 -16z m32 -55 c19 -7 31 -18 31 -29 0 -10 23 -34 56 -56
31 -21 60 -47 66 -57 5 -10 16 -16 24 -13 18 7 18 -27 1 -66 l-12 -28 -70 87
c-66 83 -70 85 -83 65 -14 -21 -15 -21 -67 25 -52 46 -63 80 -24 70 11 -3 22
-1 25 4 7 12 14 11 53 -2z m210 -46 c0 -25 -1 -26 -9 -8 -12 27 -12 35 0 35 6
0 10 -12 9 -27z m-224 -107 c18 -28 7 -78 -12 -54 -6 7 -14 28 -18 46 -8 38 7
43 30 8z m34 -123 c0 -25 -1 -25 -8 -8 -5 11 -7 23 -4 28 8 14 13 7 12 -20z
m41 8 c0 -11 6 -21 13 -24 20 -7 3 -17 -21 -10 -21 5 -30 32 -15 46 12 13 23
7 23 -12z m-80 -50 c0 -25 20 -38 21 -14 1 18 27 -41 28 -64 2 -23 -15 -14
-26 15 -10 25 -11 24 -12 -20 -1 -27 4 -48 9 -48 6 0 10 -7 10 -17 0 -15 -2
-15 -19 1 -22 20 -36 77 -21 86 6 4 8 14 4 24 -4 12 -9 14 -14 6 -4 -6 -7 3
-7 20 0 18 5 30 14 30 7 0 13 -9 13 -19z m132 -73 c-2 -10 -8 -21 -13 -24 -5
-3 -9 -16 -9 -29 0 -13 -7 -30 -15 -39 -8 -8 -15 -26 -15 -40 0 -14 -5 -26
-11 -26 -7 0 -9 10 -5 25 4 14 2 44 -4 67 -9 30 -9 43 0 48 6 4 8 14 4 23 -9
24 13 21 28 -3 18 -28 28 -25 28 10 0 17 -5 30 -11 30 -5 0 -7 5 -3 11 10 16
33 -29 26 -53z m-947 42 c9 -14 -24 -72 -38 -67 -7 2 -11 11 -9 21 2 9 -3 16
-10 16 -7 0 -2 9 12 20 28 22 36 24 45 10z m45 -30 c0 -30 -4 -40 -16 -40 -12
0 -14 7 -9 33 13 60 25 64 25 7z m127 -47 c-10 -9 -13 -3 -20 37 l-6 35 16
-32 c9 -18 13 -36 10 -40z m466 46 c3 -12 3 -18 0 -15 -3 3 -12 -2 -19 -12
-10 -14 -15 -15 -26 -4 -11 11 -10 12 4 7 13 -5 19 0 24 19 8 31 10 32 17 5z
m-523 -15 c0 -8 -4 -12 -10 -9 -5 3 -10 13 -10 21 0 8 5 12 10 9 6 -3 10 -13
10 -21z m650 16 c0 -5 -4 -10 -9 -10 -6 0 -13 5 -16 10 -3 6 1 10 9 10 9 0 16
-4 16 -10z m-1259 -36 c15 -15 26 -30 24 -34 -3 -5 6 -11 20 -14 14 -4 25 -11
25 -16 0 -6 5 -10 10 -10 7 0 7 6 1 19 -9 16 -7 17 14 13 20 -3 62 10 105 33
3 2 16 -3 30 -11 l25 -14 -30 2 c-27 1 -52 -8 -110 -45 -11 -6 -22 -15 -25
-18 -14 -17 -55 -17 -79 0 -15 11 -37 21 -50 22 -14 2 -26 10 -29 18 -3 9 1
11 14 7 11 -3 26 -1 34 4 11 7 0 10 -36 10 -32 0 -56 5 -63 14 -6 8 -25 19
-41 26 -49 20 -34 27 51 24 73 -2 84 -5 110 -30z m608 -30 c2 -2 -10 -4 -27
-4 -25 0 -32 -4 -32 -20 0 -13 7 -20 19 -20 23 0 73 -38 66 -50 -3 -5 9 -23
26 -41 25 -25 33 -29 40 -18 5 8 9 11 9 7 0 -3 3 -14 7 -24 4 -12 3 -15 -5
-10 -9 6 -9 1 0 -18 6 -14 15 -26 20 -26 16 0 8 -28 -11 -33 -38 -10 -193 12
-316 45 -77 21 -124 43 -80 37 11 -1 29 2 39 6 13 6 23 3 32 -9 16 -22 101
-36 89 -15 -6 11 -5 12 6 2 7 -7 22 -13 32 -13 17 0 18 2 6 17 -13 15 -11 16
12 10 l26 -7 -14 63 c-16 69 -21 77 -32 58 -14 -22 -21 15 -10 49 10 28 13 30
52 24 23 -4 44 -8 46 -10z m166 -12 c-3 -3 -11 0 -18 7 -9 10 -8 11 6 5 10 -3
15 -9 12 -12z m-465 -12 c0 -5 -7 -10 -16 -10 -8 0 -12 5 -9 10 3 6 10 10 16
10 5 0 9 -4 9 -10z m523 -45 c8 -19 2 -19 -34 2 -16 10 -29 23 -29 30 0 18 55
-10 63 -32z m-666 3 c-1 -35 4 -59 11 -54 4 2 14 1 22 -5 29 -17 -14 -10 -52
10 l-37 18 20 22 c22 24 37 27 36 9z m210 -10 c-2 -7 -11 -12 -19 -10 -15 2
-48 -31 -74 -74 -10 -15 -14 -17 -25 -6 -11 10 -11 12 0 12 8 0 11 7 8 20 -3
11 -1 18 3 15 5 -3 11 -1 15 5 3 5 1 10 -5 10 -6 0 -8 5 -5 10 4 6 10 8 15 5
4 -3 13 2 20 10 15 19 74 21 67 3z m126 -45 c-7 -2 -9 -11 -6 -20 5 -12 2 -12
-15 3 -29 25 -28 32 6 26 15 -3 22 -7 15 -9z m796 -5 c19 -52 22 -68 12 -68
-15 0 -44 59 -37 76 8 20 15 17 25 -8z m-1408 -2 c5 3 9 0 9 -5 0 -6 -7 -11
-15 -11 -8 0 -15 8 -14 18 0 10 3 12 6 4 2 -6 9 -10 14 -6z m499 -6 c0 -5 -2
-10 -4 -10 -3 0 -8 5 -11 10 -3 6 -1 10 4 10 6 0 11 -4 11 -10z m54 -31 c-3
-5 -10 -7 -15 -3 -5 3 -7 10 -3 15 3 5 10 7 15 3 5 -3 7 -10 3 -15z m-834 7
c0 -2 -3 -12 -6 -20 -5 -13 -9 -14 -20 -5 -20 16 -17 29 6 29 11 0 20 -2 20
-4z m645 -46 c3 -5 -1 -10 -10 -10 -9 0 -13 5 -10 10 3 6 8 10 10 10 2 0 7 -4
10 -10z m560 0 c3 -5 1 -10 -4 -10 -6 0 -11 5 -11 10 0 6 2 10 4 10 3 0 8 -4
11 -10z m341 -45 c20 -15 13 -18 -23 -9 -13 4 -23 10 -23 15 0 14 24 11 46 -6z
m-261 -25 c3 -5 1 -10 -4 -10 -6 0 -11 5 -11 10 0 6 2 10 4 10 3 0 8 -4 11
-10z m239 -5 c6 -17 -29 -40 -46 -29 -7 4 -2 13 13 25 29 22 26 22 33 4z
m-914 -17 c0 -16 -3 -19 -11 -11 -6 6 -8 16 -5 22 11 17 16 13 16 -11z m-170
-14 c0 -9 -11 -14 -36 -14 -24 0 -34 4 -31 13 2 6 14 12 26 11 11 0 21 3 21 8
0 5 5 6 10 3 6 -3 10 -13 10 -21z m830 6 c0 -5 6 -7 14 -4 8 3 17 1 21 -5 3
-6 -1 -11 -9 -11 -9 0 -13 -6 -10 -14 7 -18 -13 -25 -53 -19 -28 4 -33 10 -33
32 0 18 -3 22 -9 12 -5 -8 -11 -9 -15 -3 -3 6 0 13 6 15 23 9 88 7 88 -3z
m-712 -38 c5 -16 -36 -3 -42 13 -4 11 0 12 16 6 12 -4 24 -13 26 -19z m463
-122 c5 0 9 -9 9 -20 0 -26 -26 -26 -40 -1 -14 27 -13 34 6 27 9 -3 20 -6 25
-6z m642 -50 c-3 -11 -9 -20 -14 -20 -10 0 -11 12 -3 34 9 22 23 10 17 -14z
m-173 -15 c10 -13 11 -18 1 -28 -10 -9 -15 -8 -27 7 -8 11 -14 23 -14 28 0 14
27 9 40 -7z m-40 -145 c9 0 10 -3 1 -14 -6 -7 -9 -20 -5 -29 3 -8 0 -18 -7
-23 -7 -4 -14 -3 -16 3 -2 5 -15 8 -28 5 -18 -3 -25 0 -25 11 0 9 5 19 11 23
8 4 7 9 -2 15 -11 8 -10 12 5 24 17 13 22 13 36 0 9 -8 22 -15 30 -15z m-45
-80 c3 -5 1 -10 -4 -10 -6 0 -11 5 -11 10 0 6 2 10 4 10 3 0 8 -4 11 -10z"/>
<path d="M1659 2359 c-6 -3 23 -25 63 -49 40 -24 81 -50 91 -58 14 -12 22 -13
42 -4 14 6 25 20 25 29 0 10 3 35 7 56 l6 38 -112 -3 c-62 -2 -117 -6 -122 -9z
m181 -59 c0 -5 -7 -10 -15 -10 -8 0 -15 5 -15 10 0 6 7 10 15 10 8 0 15 -4 15
-10z"/>
<path d="M2101 2162 c-1 -45 22 -69 40 -41 14 22 11 49 -4 43 -8 -3 -18 5 -25
18 -10 21 -11 19 -11 -20z"/>
<path d="M2256 2181 c-4 -7 -5 -15 -2 -18 9 -9 19 4 14 18 -4 11 -6 11 -12 0z"/>
<path d="M1984 2165 c-9 -22 1 -29 15 -11 8 10 9 16 1 21 -5 3 -13 -1 -16 -10z"/>
<path d="M1678 2163 c7 -3 16 -2 19 1 4 3 -2 6 -13 5 -11 0 -14 -3 -6 -6z"/>
<path d="M1912 2136 c-9 -19 -8 -25 4 -30 8 -3 14 -13 14 -23 0 -35 14 -42 39
-21 l25 19 -27 23 c-15 13 -24 25 -22 28 3 3 -1 10 -8 16 -11 9 -16 7 -25 -12z"/>
<path d="M2126 2075 c-18 -27 -22 -110 -5 -121 16 -10 79 56 79 83 0 19 -5 23
-31 23 -26 0 -29 3 -24 20 9 27 1 25 -19 -5z"/>
<path d="M1394 2016 c-2 -30 24 -42 45 -21 17 16 9 29 -24 39 -16 5 -20 1 -21
-18z"/>
<path d="M1985 2021 c-3 -5 -1 -12 5 -16 15 -9 12 -25 -4 -25 -22 0 -41 -30
-37 -62 2 -23 -2 -31 -18 -35 -12 -3 -21 -10 -21 -17 0 -14 20 -45 20 -31 0 6
12 16 27 22 21 10 28 10 35 0 4 -7 2 -13 -7 -15 -16 -4 -18 -12 -9 -36 8 -20
33 -10 66 28 22 25 28 27 28 13 0 -10 -4 -26 -9 -35 -11 -21 32 -92 60 -99 16
-5 19 -11 14 -33 -3 -16 -2 -31 3 -34 5 -3 14 21 19 54 5 33 8 60 5 60 -2 0
-12 -10 -22 -22 -19 -23 -19 -23 -18 37 2 80 -17 195 -35 213 -13 12 -18 11
-37 -10 -19 -19 -22 -20 -16 -4 10 28 -3 56 -24 56 -10 0 -21 -4 -25 -9z m64
-105 c9 -10 8 -16 -4 -26 -20 -17 -44 -6 -42 19 1 24 29 28 46 7z"/>
<path d="M1224 1969 c-3 -6 -1 -16 5 -22 8 -8 11 -5 11 11 0 24 -5 28 -16 11z"/>
<path d="M2226 1935 c14 -40 14 -47 0 -66 -14 -20 -13 -24 16 -59 24 -28 37
-36 55 -32 28 5 30 25 4 51 -10 10 -22 34 -26 52 -12 56 -33 99 -49 99 -13 0
-13 -5 0 -45z"/>
<path d="M1170 1935 c-15 -16 -30 -23 -42 -19 -25 7 -23 0 7 -31 31 -31 33
-31 37 -2 2 14 11 23 26 25 25 4 27 11 9 36 -12 16 -14 15 -37 -9z"/>
<path d="M1370 1940 c0 -5 5 -10 10 -10 6 0 10 5 10 10 0 6 -4 10 -10 10 -5 0
-10 -4 -10 -10z"/>
<path d="M1436 1934 c-9 -8 -16 -22 -16 -29 0 -8 -6 -12 -13 -9 -8 3 -20 -2
-27 -10 -7 -9 -16 -14 -20 -11 -4 2 -16 -5 -26 -16 -15 -16 -15 -19 -2 -14 13
5 15 2 11 -13 -3 -12 -17 -22 -36 -26 l-32 -7 28 -24 c27 -24 28 -24 47 -5 24
24 42 26 34 5 -4 -8 -1 -15 5 -15 6 0 11 5 11 11 0 5 5 7 10 4 6 -3 10 3 10
15 0 12 -4 19 -9 15 -17 -10 -21 12 -6 25 8 7 15 18 15 26 0 7 4 16 10 19 6 4
7 -1 3 -11 -5 -14 -2 -16 15 -12 27 8 42 -16 42 -66 0 -27 3 -34 15 -30 9 4
15 0 15 -10 0 -9 0 -19 0 -23 0 -5 -6 -8 -12 -8 -24 0 -20 -40 4 -52 39 -19
57 -22 63 -12 4 5 11 7 16 3 6 -4 5 -12 -2 -22 -7 -10 -2 -7 11 5 26 24 35 82
13 90 -15 6 -18 83 -4 99 5 5 12 27 16 48 6 35 5 38 -9 27 -9 -8 -26 -11 -40
-7 -19 5 -25 1 -29 -16 -6 -20 -7 -20 -29 -6 -13 9 -27 29 -32 47 -10 34 -26
39 -50 15z"/>
<path d="M932 1829 c2 -7 10 -15 17 -17 8 -3 12 1 9 9 -2 7 -10 15 -17 17 -8
3 -12 -1 -9 -9z"/>
<path d="M2316 1761 c-4 -7 -5 -15 -2 -18 9 -9 19 4 14 18 -4 11 -6 11 -12 0z"/>
<path d="M1390 1705 c0 -8 4 -15 10 -15 5 0 7 7 4 15 -4 8 -8 15 -10 15 -2 0
-4 -7 -4 -15z"/>
<path d="M2259 1637 c-8 -7 -23 -18 -34 -25 -17 -10 -13 -11 25 -9 36 2 45 7
45 22 0 23 -19 30 -36 12z"/>
<path d="M2150 1591 c5 -11 7 -26 4 -34 -7 -20 26 -31 44 -14 11 12 12 19 2
37 -10 18 -14 20 -21 9 -7 -11 -9 -10 -9 4 0 9 -7 17 -15 17 -12 0 -13 -4 -5
-19z"/>
<path d="M757 1582 c-10 -10 -17 -22 -17 -27 0 -4 9 2 20 15 11 13 20 25 20
27 0 7 -8 2 -23 -15z"/>
<path d="M955 1551 c-3 -5 -2 -12 3 -15 5 -3 9 1 9 9 0 17 -3 19 -12 6z"/>
<path d="M1517 1503 c-4 -3 -7 -11 -7 -17 0 -6 5 -5 12 2 6 6 9 14 7 17 -3 3
-9 2 -12 -2z"/>
<path d="M1826 1491 c-4 -5 0 -12 6 -14 10 -4 10 -6 1 -6 -22 -2 -15 -41 6
-41 26 0 33 13 25 45 -6 25 -27 34 -38 16z"/>
<path d="M885 1419 c-4 -6 -5 -12 -2 -15 2 -3 7 2 10 11 7 17 1 20 -8 4z"/>
<path d="M1115 1380 c-22 -23 -25 -30 -12 -30 19 0 69 44 60 53 -11 12 -18 8
-48 -23z"/>
<path d="M970 1365 c0 -8 9 -15 20 -15 13 0 18 5 14 15 -4 8 -12 15 -20 15 -8
0 -14 -7 -14 -15z"/>
<path d="M1025 1320 c-3 -5 3 -10 15 -10 12 0 18 5 15 10 -3 6 -10 10 -15 10
-5 0 -12 -4 -15 -10z"/>
<path d="M1095 1321 l-30 -7 27 -6 c17 -3 32 0 39 8 12 15 10 15 -36 5z"/>
<path d="M1857 1285 c-18 -13 -18 -14 0 -39 22 -31 37 -34 30 -6 -3 11 -2 20
3 20 4 0 11 -16 15 -36 4 -26 10 -33 17 -26 13 13 -19 102 -36 102 -6 0 -19
-7 -29 -15z"/>
<path d="M1230 1250 c0 -5 7 -7 15 -4 8 4 15 8 15 10 0 2 -7 4 -15 4 -8 0 -15
-4 -15 -10z"/>
<path d="M1100 1220 c0 -5 7 -10 15 -10 8 0 15 5 15 10 0 6 -7 10 -15 10 -8 0
-15 -4 -15 -10z"/>
<path d="M1182 1205 c-7 -8 -9 -15 -4 -15 5 0 15 7 22 15 16 19 -1 19 -18 0z"/>
<path d="M790 1200 c0 -13 34 -30 59 -30 12 0 21 5 21 10 0 6 -11 10 -24 10
-14 0 -28 5 -31 10 -8 13 -25 13 -25 0z"/>
<path d="M1968 1185 c-3 -4 -14 -8 -25 -10 -10 -2 -20 -4 -23 -5 -3 -1 6 -6
19 -11 26 -10 46 0 39 21 -2 6 -6 8 -10 5z"/>
<path d="M2023 1182 c-26 -4 -27 -7 -11 -70 l11 -46 19 54 c19 58 16 68 -19
62z"/>
<path d="M615 1160 c-3 -5 -1 -10 4 -10 6 0 11 5 11 10 0 6 -2 10 -4 10 -3 0
-8 -4 -11 -10z"/>
<path d="M1332 1131 c-10 -28 -12 -29 -45 -19 -25 8 -34 15 -30 25 5 12 2 13
-13 5 -10 -5 -32 -14 -49 -19 -16 -4 -30 -13 -30 -18 0 -15 64 -18 81 -4 11 9
14 8 14 -9 0 -20 40 -35 66 -25 16 6 57 73 49 81 -3 3 -5 2 -5 -3 0 -4 -6 -2
-14 4 -11 9 -16 6 -24 -18z"/>
<path d="M1130 1120 c0 -5 5 -10 10 -10 6 0 10 5 10 10 0 6 -4 10 -10 10 -5 0
-10 -4 -10 -10z"/>
<path d="M914 1106 c-4 -10 -2 -22 4 -28 8 -8 13 -7 18 6 4 10 2 22 -4 28 -8
8 -13 7 -18 -6z"/>
<path d="M849 1079 c19 -15 26 -17 32 -7 15 22 10 28 -23 28 l-33 -1 24 -20z"/>
<path d="M785 1070 c3 -5 8 -10 11 -10 2 0 4 5 4 10 0 6 -5 10 -11 10 -5 0 -7
-4 -4 -10z"/>
<path d="M1669 890 c52 -48 84 -62 46 -20 -10 11 -14 20 -10 20 5 0 0 6 -10
14 -11 8 -23 12 -26 10 -4 -2 -12 3 -19 11 -7 8 -18 15 -24 15 -6 0 13 -23 43
-50z"/>
<path d="M1892 863 c5 -25 28 -28 28 -4 0 12 -6 21 -16 21 -9 0 -14 -7 -12
-17z"/>
<path d="M1476 609 c5 -9 -1 -10 -22 -5 -18 5 -25 4 -19 -2 14 -13 85 -25 85
-14 0 5 -12 14 -26 20 -19 9 -23 9 -18 1z"/>
</g>
</svg>
